<svg width="135" height="45" viewBox="0 0 135 45" fill="none" xmlns="http://www.w3.org/2000/svg">
<g clip-path="url(#clip0_71_504)">
<path d="M32.6128 21.9267C32.6165 26.0991 30.177 28.5908 25.982 28.7284C24.1936 28.7847 22.4016 28.7445 20.6095 28.7364C15.8676 28.7167 12.1698 30.7106 9.39075 34.5001C7.48577 37.1082 7.06854 38.4741 5.59251 41.454C5.00151 42.6501 4.5073 43.5416 3.88403 44.1851H0C5.89388 31.2801 11.724 18.5135 17.6472 5.54115L19.6211 10.1293C19.5126 10.4396 19.3666 10.7632 19.1965 11.0948C16.6001 16.1264 14.4348 21.3807 12.0363 26.6642C14.8476 26.3684 16.4461 25.0399 17.7806 22.0841C19.1283 19.0903 20.1322 16.8782 21.3662 14.1881L23.3079 18.7023C22.4786 20.7219 20.9417 22.6777 20.553 24.8737C23.2397 24.7815 23.8908 24.9352 25.7195 25.0757C28.1877 25.2653 29.1533 23.3358 28.9832 21.0571C28.8227 18.9197 28.0212 16.9455 27.1318 15.0021C27.1222 14.9816 27.1105 14.9575 27.1024 14.9377C25.1733 10.7295 23.2675 6.51616 21.3464 2.28453H25.4116C25.468 2.41409 25.5252 2.55463 25.5817 2.70469C27.1882 6.85654 29.2193 10.8466 31.0429 14.9179C32.0424 17.1395 32.6136 19.4819 32.6136 21.9253" fill="#141313"/>
<path d="M36.7879 30.6074C36.6339 30.8175 36.4674 31.0195 36.2988 31.2171C36.2988 31.2171 36.2907 31.2215 36.2907 31.2252C33.9033 33.9672 30.2091 35.5344 25.4349 35.4092C18.1926 35.2233 14.3782 38.0671 11.5779 44.1865H7.41895C8.81506 41.0192 10.3241 38.1447 12.4395 35.6032C14.511 33.1196 17.1573 31.8518 20.443 31.9528C22.1419 32.0011 23.8504 32.0091 25.5493 31.9528C32.3986 31.7259 36.3355 26.9687 35.5384 20.1831C34.9635 15.2598 32.5937 11.034 30.688 6.6245C30.061 5.17077 29.4004 3.72875 28.7368 2.28673H32.9478C33.0454 2.50486 33.1421 2.73837 33.2397 2.9931C35.1689 8.06212 38.0901 12.7322 39.0617 18.1958C39.9511 23.196 39.1057 27.5374 36.7879 30.6067" fill="#141313"/>
<path d="M51.9998 44.1836H47.7513C47.5005 43.7715 47.2864 43.2957 47.0877 42.7577C45.7209 39.8495 42.4477 31.9945 41.21 29.0783C41.9953 27.1107 42.3876 24.8649 42.3619 22.4186C45.3484 29.0988 49.2567 38.1125 51.9998 44.1836" fill="#141313"/>
<path d="M36.7879 30.6074C36.6339 30.8175 36.4675 31.0195 36.2988 31.2171C36.4191 31.0071 36.5819 30.805 36.7879 30.6074Z" fill="#141313"/>
<path d="M44.4672 44.1836H40.4423C40.2444 43.844 40.0618 43.456 39.8873 43.0117C39.1467 41.3998 37.2894 36.6265 36.6463 35.1201C36.6265 35.0718 36.606 35.0279 36.5898 34.9825C37.6655 34.2322 38.6048 33.3384 39.3887 32.3129C40.9989 36.0248 42.9581 40.7667 44.4672 44.1836Z" fill="#141313"/>
<path d="M45.5012 0.00122074C44.3078 0.00122074 43.1389 0.343027 42.122 0.988798C40.779 1.84331 39.7785 3.1727 39.3039 4.73158C39.1333 5.29312 39.0339 5.87663 39.007 6.46625C39.0023 6.57245 39 6.67866 39 6.78486C39 8.05321 39.339 9.29226 39.9783 10.3665L40.0181 10.4312C40.1548 10.6546 40.3044 10.8707 40.4634 11.0733L40.4985 11.1185L42.2658 13.1925L44.0202 11.1258L42.496 9.33743C42.3932 9.20559 42.2973 9.06642 42.2108 8.92238L42.2073 8.91749C41.838 8.29858 41.6252 7.56736 41.6252 6.78486C41.6252 6.72016 41.6264 6.65669 41.6299 6.59321C41.6463 6.23553 41.7071 5.88884 41.8064 5.56168C42.0916 4.62294 42.6959 3.83312 43.4872 3.33017C44.074 2.95663 44.7636 2.74178 45.5012 2.74178C47.6413 2.74178 49.3759 4.55213 49.3759 6.78486C49.3759 7.56736 49.162 8.29858 48.7927 8.91749L48.7892 8.92238C48.7681 8.95656 48.7471 8.99196 48.7249 9.02614C48.6559 9.13356 48.5823 9.23855 48.504 9.33865L45.8331 12.4711L43.7444 14.9321L45.4883 17L50.5027 11.1185L50.5378 11.0721C50.6687 10.9049 50.7937 10.7278 50.906 10.5508C50.9434 10.4922 50.9808 10.4324 51.0205 10.3665C51.661 9.29104 52 8.05321 52 6.78486C52 3.0433 49.0837 0 45.4988 0L45.5012 0.00122074Z" fill="#FEBE10"/>
</g>
<path d="M51.984 28L56.416 16.8H58.72L63.12 28H60.368L58.256 22.32C58.1707 22.096 58.0853 21.856 58 21.6C57.9147 21.344 57.8293 21.0827 57.744 20.816C57.6587 20.5387 57.5733 20.272 57.488 20.016C57.4133 19.7493 57.3493 19.504 57.296 19.28L57.776 19.264C57.712 19.5307 57.6373 19.792 57.552 20.048C57.4773 20.304 57.3973 20.56 57.312 20.816C57.2373 21.0613 57.152 21.312 57.056 21.568C56.96 21.8133 56.8693 22.0693 56.784 22.336L54.672 28H51.984ZM54.096 25.856L54.944 23.808H60.096L60.928 25.856H54.096ZM66.5014 24.72L65.7974 22.432L71.3494 16.8H74.5654L66.5014 24.72ZM64.5174 28V16.8H67.2374V28H64.5174ZM71.7014 28L67.5414 22.528L69.3814 20.944L74.8694 28H71.7014ZM78.2834 28L74.9234 16.8H77.6914L79.3714 22.688C79.446 22.9547 79.51 23.2267 79.5634 23.504C79.6274 23.7707 79.6754 24.0267 79.7074 24.272C79.75 24.5173 79.782 24.7467 79.8034 24.96C79.8247 25.1627 79.846 25.3333 79.8674 25.472H79.5154C79.5794 25.0773 79.6327 24.7253 79.6754 24.416C79.7287 24.1067 79.7874 23.8187 79.8514 23.552C79.9154 23.2747 79.9954 22.9867 80.0914 22.688L81.7554 18.256H83.9314L85.5634 22.688C85.6914 23.04 85.798 23.3707 85.8834 23.68C85.9687 23.9893 86.0327 24.288 86.0754 24.576C86.1287 24.8533 86.1714 25.1307 86.2034 25.408L85.8834 25.456C85.9047 25.264 85.9207 25.088 85.9314 24.928C85.942 24.7573 85.9527 24.5973 85.9634 24.448C85.9847 24.288 86.006 24.1227 86.0274 23.952C86.0487 23.7813 86.0807 23.5947 86.1234 23.392C86.166 23.1787 86.2247 22.9387 86.2994 22.672L87.9634 16.8H90.6674L87.3074 28H85.2274L82.5714 21.552L82.8754 21.584L80.4274 28H78.2834ZM90.0934 28L94.5254 16.8H96.8294L101.229 28H98.4774L96.3654 22.32C96.28 22.096 96.1947 21.856 96.1094 21.6C96.024 21.344 95.9387 21.0827 95.8534 20.816C95.768 20.5387 95.6827 20.272 95.5974 20.016C95.5227 19.7493 95.4587 19.504 95.4054 19.28L95.8854 19.264C95.8214 19.5307 95.7467 19.792 95.6614 20.048C95.5867 20.304 95.5067 20.56 95.4214 20.816C95.3467 21.0613 95.2614 21.312 95.1654 21.568C95.0694 21.8133 94.9787 22.0693 94.8934 22.336L92.7814 28H90.0934ZM92.2054 25.856L93.0534 23.808H98.2054L99.0374 25.856H92.2054ZM101.203 28L105.635 16.8H107.939L112.339 28H109.587L107.475 22.32C107.389 22.096 107.304 21.856 107.219 21.6C107.133 21.344 107.048 21.0827 106.963 20.816C106.877 20.5387 106.792 20.272 106.707 20.016C106.632 19.7493 106.568 19.504 106.515 19.28L106.995 19.264C106.931 19.5307 106.856 19.792 106.771 20.048C106.696 20.304 106.616 20.56 106.531 20.816C106.456 21.0613 106.371 21.312 106.275 21.568C106.179 21.8133 106.088 22.0693 106.003 22.336L103.891 28H101.203ZM103.315 25.856L104.163 23.808H109.315L110.147 25.856H103.315ZM113.736 28V16.8H118.68C119.448 16.8 120.099 16.912 120.632 17.136C121.165 17.3493 121.565 17.664 121.832 18.08C122.109 18.4853 122.248 18.976 122.248 19.552C122.248 20.192 122.088 20.7307 121.768 21.168C121.459 21.6053 121.005 21.8987 120.408 22.048L120.376 21.744C120.877 21.8507 121.309 22.0373 121.672 22.304C122.045 22.5707 122.333 22.9013 122.536 23.296C122.739 23.68 122.84 24.1173 122.84 24.608C122.84 25.1733 122.744 25.6693 122.552 26.096C122.36 26.512 122.083 26.864 121.72 27.152C121.357 27.44 120.931 27.6533 120.44 27.792C119.96 27.9307 119.427 28 118.84 28H113.736ZM116.296 25.728H118.744C119.043 25.728 119.293 25.68 119.496 25.584C119.709 25.488 119.875 25.3493 119.992 25.168C120.109 24.976 120.168 24.7467 120.168 24.48C120.168 24.2347 120.104 24.0267 119.976 23.856C119.859 23.6853 119.688 23.5573 119.464 23.472C119.24 23.376 118.973 23.328 118.664 23.328H116.296V25.728ZM116.296 21.296H118.296C118.573 21.296 118.808 21.2533 119 21.168C119.203 21.072 119.352 20.944 119.448 20.784C119.555 20.6133 119.608 20.4107 119.608 20.176C119.608 19.8347 119.491 19.568 119.256 19.376C119.021 19.1733 118.669 19.072 118.2 19.072H116.296V21.296ZM123.531 28L127.963 16.8H130.267L134.667 28H131.915L129.803 22.32C129.718 22.096 129.632 21.856 129.547 21.6C129.462 21.344 129.376 21.0827 129.291 20.816C129.206 20.5387 129.12 20.272 129.035 20.016C128.96 19.7493 128.896 19.504 128.843 19.28L129.323 19.264C129.259 19.5307 129.184 19.792 129.099 20.048C129.024 20.304 128.944 20.56 128.859 20.816C128.784 21.0613 128.699 21.312 128.603 21.568C128.507 21.8133 128.416 22.0693 128.331 22.336L126.219 28H123.531ZM125.643 25.856L126.491 23.808H131.643L132.475 25.856H125.643Z" fill="black"/>
<defs>
<clipPath id="clip0_71_504">
<rect width="52" height="44.1865" fill="white"/>
</clipPath>
</defs>
</svg>
